<svg xmlns="http://www.w3.org/2000/svg" viewBox="0 0 170 170"><defs><style>.cls-1{opacity:0.42;}.cls-2{fill:none;}.cls-3{fill:#fff;opacity:0.5;}</style></defs><title>plane-bg</title><g id="Layer_2" data-name="Layer 2"><g id="Layer_1-2" data-name="Layer 1"><g class="cls-1"><rect class="cls-2" width="85" height="85"/><path class="cls-3" d="M65.2,49.18l-1.67-5a.42.42,0,0,0-.24-.25L45.92,36.52a.46.46,0,0,1-.26-.39c0-1.19,0-5.83-.2-7.22-.27-2.27-2.39-4.09-3-4.09s-2.69,1.82-3,4.09c-.16,1.39-.2,6-.2,7.22a.46.46,0,0,1-.26.39L21.71,44a.42.42,0,0,0-.24.25l-1.67,5a.43.43,0,0,0,.51.55l19-4.49a.42.42,0,0,1,.52.35L41,53.51a.41.41,0,0,1-.24.44l-5.88,2.74a.37.37,0,0,0-.2.19l-1.12,2.19a.43.43,0,0,0,.43.62l7.33-1a.43.43,0,0,1,.41.2s.36.82.45,1c.21.33.36.3.36.3s.15,0,.36-.3c.09-.14.45-1,.45-1a.43.43,0,0,1,.41-.2l7.33,1a.43.43,0,0,0,.43-.62l-1.12-2.19a.37.37,0,0,0-.2-.19L44.28,54a.41.41,0,0,1-.24-.44l1.17-7.92a.42.42,0,0,1,.52-.35l19,4.49A.43.43,0,0,0,65.2,49.18Z"/><rect class="cls-2" x="85" y="85" width="85" height="85" transform="translate(255 255) rotate(180)"/><path class="cls-3" d="M104.8,120.82l1.67,5a.42.42,0,0,0,.24.25l17.37,7.46a.46.46,0,0,1,.26.39c0,1.19,0,5.83.2,7.22.27,2.27,2.39,4.09,3,4.09s2.69-1.82,3-4.09c.16-1.39.2-6,.2-7.22a.46.46,0,0,1,.26-.39L148.29,126a.42.42,0,0,0,.24-.25l1.67-5a.43.43,0,0,0-.51-.55l-19,4.49a.42.42,0,0,1-.52-.35L129,116.49a.41.41,0,0,1,.24-.44l5.88-2.74a.37.37,0,0,0,.2-.19l1.12-2.19a.43.43,0,0,0-.43-.62l-7.33,1a.43.43,0,0,1-.41-.2s-.36-.82-.45-1c-.21-.33-.36-.3-.36-.3s-.15,0-.36.3c-.09.14-.45,1-.45,1a.43.43,0,0,1-.41.2l-7.33-1a.43.43,0,0,0-.43.62l1.12,2.19a.37.37,0,0,0,.2.19l5.88,2.74a.41.41,0,0,1,.24.44l-1.17,7.92a.42.42,0,0,1-.52.35l-19-4.49A.43.43,0,0,0,104.8,120.82Z"/></g></g></g></svg>